<svg height="200px" width="200px" version="1.1" id="Layer_1" xmlns="http://www.w3.org/2000/svg" xmlns:xlink="http://www.w3.org/1999/xlink" viewBox="0 0 512 512" xml:space="preserve" fill="#000000"><g id="SVGRepo_bgCarrier" stroke-width="0"></g><g id="SVGRepo_tracerCarrier" stroke-linecap="round" stroke-linejoin="round"></g><g id="SVGRepo_iconCarrier"> <g transform="translate(1 1)"> <g> <polygon style="fill:#FFE100;" points="228.517,100.517 228.517,188.793 299.138,188.793 299.138,100.517 343.276,100.517 263.828,12.241 184.379,100.517 "></polygon> <path style="fill:#FFE100;" d="M433.317,188.793c4.414,7.945,7.062,16.772,7.062,26.483c0,29.131-23.834,52.965-52.966,52.965 c-29.131,0-52.966-23.834-52.966-52.965c0-9.71,2.648-18.538,7.062-26.483H7.828v308.966h494.345V188.793H433.317z"></path> </g> <polygon style="fill:#FFA800;" points="484.517,497.759 502.172,497.759 502.172,188.793 484.517,188.793 "></polygon> <polygon style="fill:#FFFFFF;" points="7.828,488.931 25.483,488.931 25.483,179.966 7.828,179.966 "></polygon> <path style="fill:#00DA6C;" d="M453.621,277.069c-15.007,0-28.248-7.062-37.076-17.655c-7.945,5.297-18.538,8.828-29.131,8.828 c-26.483,0-47.669-19.421-52.083-44.138H255H104.931c0,1.766,0,2.648,0,4.414c0,26.483-22.069,48.552-48.552,48.552 c-1.766,0-2.648,0-4.414,0v103.283c9.71-14.124,25.6-23.834,44.138-23.834c29.131,0,52.966,23.834,52.966,52.966 c0,18.538-9.71,34.428-23.834,44.138H255h150.069c0-1.766,0-2.648,0-4.414c0-26.483,22.069-48.552,48.552-48.552 c1.766,0,2.648,0,4.414,0V277.069C456.269,277.069,455.386,277.069,453.621,277.069"></path> <g> <path style="fill:#63D3FD;" d="M440.379,215.276c0,29.131-23.834,52.965-52.966,52.965c-29.131,0-52.966-23.834-52.966-52.965 s23.835-52.966,52.966-52.966C416.545,162.31,440.379,186.145,440.379,215.276"></path> <path style="fill:#63D3FD;" d="M149.069,409.483c0,29.131-23.834,52.966-52.966,52.966s-52.966-23.835-52.966-52.966 c0-29.131,23.834-52.966,52.966-52.966S149.069,380.352,149.069,409.483"></path> </g> <g> <path style="fill:#3DB9F9;" d="M387.414,162.31c-2.648,0-6.179,0-8.828,0.883c24.717,4.414,44.138,25.6,44.138,52.083 s-19.421,47.669-44.138,52.083c2.648,0.883,6.179,0.883,8.828,0.883c29.131,0,52.966-23.834,52.966-52.965 S416.545,162.31,387.414,162.31"></path> <path style="fill:#3DB9F9;" d="M96.103,356.517c-2.648,0-6.179,0-8.828,0.883c24.717,4.414,44.138,25.6,44.138,52.083 s-19.421,47.669-44.138,52.083c2.648,0.883,6.179,0.883,8.828,0.883c29.131,0,52.966-23.835,52.966-52.966 C149.069,380.352,125.234,356.517,96.103,356.517"></path> </g> <path d="M263.828,410.366c-24.717,0-44.138-19.421-44.138-44.138c0-5.297,3.531-8.828,8.828-8.828s8.828,3.531,8.828,8.828 c0,15.007,11.476,26.483,26.483,26.483c7.945,0,15.007-3.531,20.303-9.71c2.648-2.648,3.531-6.179,2.648-9.71 c0-3.531-2.648-7.062-5.297-9.71l-45.903-36.193c-7.062-5.297-11.476-13.241-12.359-22.069c-0.883-8.828,1.766-16.772,7.062-22.952 c8.828-9.71,20.303-15.89,33.545-15.89c24.717,0,44.138,19.421,44.138,44.138c0,5.297-3.531,8.828-8.828,8.828 s-8.828-3.531-8.828-8.828c0-15.007-11.476-26.483-26.483-26.483c-7.945,0-15.007,3.531-20.303,9.71 c-2.648,2.648-3.531,6.179-2.648,9.71c0,3.531,2.648,7.062,5.297,9.71l45.903,36.193c7.062,5.297,11.476,13.241,12.359,22.069 c0.883,8.828-1.766,16.772-7.062,22.952C289.428,405.069,277.069,410.366,263.828,410.366z"></path> <path d="M263.828,426.255c-5.297,0-8.828-3.531-8.828-8.828V259.414c0-5.297,3.531-8.828,8.828-8.828 c5.297,0,8.828,3.531,8.828,8.828v158.014C272.655,421.841,269.124,426.255,263.828,426.255z"></path> <path d="M387.414,277.069c-34.428,0-61.793-27.366-61.793-61.793s27.366-61.793,61.793-61.793s61.793,27.366,61.793,61.793 S421.841,277.069,387.414,277.069z M387.414,171.138c-24.717,0-44.138,19.421-44.138,44.138s19.421,44.138,44.138,44.138 s44.138-19.421,44.138-44.138S412.131,171.138,387.414,171.138z"></path> <path d="M96.103,471.276c-34.428,0-61.793-27.365-61.793-61.793s27.366-61.793,61.793-61.793s61.793,27.365,61.793,61.793 S130.531,471.276,96.103,471.276z M96.103,365.345c-24.717,0-44.138,19.421-44.138,44.138s19.421,44.138,44.138,44.138 s44.138-19.421,44.138-44.138S120.821,365.345,96.103,365.345z"></path> <path d="M502.172,506.586H7.828c-5.297,0-8.828-3.531-8.828-8.828V188.793c0-5.297,3.531-8.828,8.828-8.828H341.51 c3.531,0,6.179,1.766,7.945,4.414c1.766,2.648,1.766,6.179,0,8.828c-4.414,7.062-6.179,14.124-6.179,22.069 c0,24.717,19.421,44.138,44.138,44.138s44.138-19.421,44.138-44.138c0-7.945-1.766-15.007-6.179-22.069 c-1.766-2.648-1.766-6.179,0-8.828s4.414-4.414,7.945-4.414h68.855c5.297,0,8.828,3.531,8.828,8.828v308.966 C511,503.055,507.469,506.586,502.172,506.586z M16.655,488.931h476.69v-291.31h-46.786c1.766,5.297,2.648,11.476,2.648,17.655 c0,34.428-27.366,61.793-61.793,61.793s-61.793-27.366-61.793-61.793c0-6.179,0.883-12.359,2.648-17.655H16.655V488.931z"></path> <path d="M405.069,462.448L405.069,462.448H125.234c-3.531,0-7.062-2.648-8.828-6.179c-0.883-3.531,0-7.945,3.531-9.71 c12.359-7.945,19.421-22.069,19.421-37.076c0-24.717-19.421-44.138-44.138-44.138c-15.007,0-28.248,7.062-37.076,19.421 c-1.766,3.531-6.179,4.414-9.71,3.531c-3.531-0.883-6.179-4.414-6.179-8.828v-102.4c0-2.648,0.883-4.414,2.648-6.179 c1.766-1.766,5.297-2.648,7.945-2.648c0.883,0,2.648,0,3.531,0c22.069,0,39.724-17.655,39.724-39.724c0-0.883,0-2.648,0-3.531 c0-2.648,0.883-5.297,2.648-7.062c1.766-1.766,4.414-2.648,6.179-2.648h230.4c4.414,0,7.945,3.531,8.828,7.062 c3.531,21.186,22.069,37.076,43.255,37.076c8.828,0,16.772-2.648,23.835-7.062c3.531-2.648,8.828-1.766,11.476,1.766 c7.945,9.71,21.186,15.007,34.428,14.124c2.648,0,5.297,0.883,7.062,2.648c1.766,1.766,2.648,4.414,2.648,6.179v123.586 c0,2.648-0.883,4.414-2.648,6.179c-1.766,2.648-4.414,2.648-7.062,2.648c-0.883,0-2.648,0-3.531,0 c-22.069,0-39.724,17.655-39.724,39.724c0,0.883,0,1.766,0,1.766c0,0.883,0,1.766,0,2.648 C413.897,458.917,410.366,462.448,405.069,462.448z M146.421,444.793h249.821c1.766-28.248,24.717-50.317,52.966-52.966V285.897 c-13.241-0.883-24.717-6.179-34.428-15.007c-8.828,4.414-17.655,6.179-27.366,6.179c-27.366,0-51.2-18.538-59.145-44.138h-214.51 c-1.766,28.248-24.717,50.317-52.966,52.966v73.269c10.593-7.062,22.069-11.476,35.31-11.476c34.428,0,61.793,27.365,61.793,61.793 C157.897,422.724,154.366,434.2,146.421,444.793z"></path> <path d="M299.138,197.621h-70.621c-5.297,0-8.828-3.531-8.828-8.828v-79.448h-35.31c-3.531,0-7.062-1.766-7.945-5.297 c-0.883-3.531-0.883-7.062,1.766-9.71l79.448-88.276c3.531-3.531,9.71-3.531,13.241,0l78.565,87.393 c1.766,1.766,2.648,4.414,2.648,7.062c0,5.297-3.531,8.828-8.828,8.828l0,0h-35.31v79.448 C307.966,194.09,304.434,197.621,299.138,197.621z M237.345,179.966h52.965v-79.448c0-5.297,3.531-8.828,8.828-8.828h24.717 l-60.028-66.207L203.8,91.69h24.717c5.297,0,8.828,3.531,8.828,8.828V179.966z"></path> </g> </g></svg>